<?xml version="1.0" standalone="no"?>
<!DOCTYPE svg PUBLIC "-//W3C//DTD SVG 20010904//EN"
 "http://www.w3.org/TR/2001/REC-SVG-20010904/DTD/svg10.dtd">
<svg version="1.0" xmlns="http://www.w3.org/2000/svg"
 width="2100.000000pt" height="1677.000000pt" viewBox="0 0 2100.000000 1677.000000"
 preserveAspectRatio="xMidYMid meet">

<g transform="translate(0.000000,1677.000000) scale(0.100000,-0.100000)"
fill="#fff" stroke="none">
<path d="M8625 16340 c-27 -11 -68 -19 -90 -20 -22 0 -69 -9 -103 -20 -35 -11
-73 -20 -84 -20 -11 0 -42 -11 -70 -25 -27 -14 -56 -25 -63 -25 -26 0 -103
-53 -120 -83 -23 -39 -68 -65 -137 -78 -63 -13 -68 -19 -68 -106 0 -40 -5 -58
-25 -81 -14 -17 -25 -33 -25 -37 0 -11 -111 -155 -120 -155 -12 0 -116 -161
-123 -191 -4 -14 -18 -42 -32 -63 -14 -20 -25 -42 -25 -49 0 -7 -20 -51 -45
-97 -25 -47 -57 -108 -70 -137 -13 -28 -29 -54 -35 -58 -17 -10 -60 -83 -60
-100 0 -9 -15 -46 -34 -83 -18 -37 -39 -83 -46 -102 -7 -19 -26 -49 -42 -65
-15 -17 -28 -38 -28 -46 0 -8 -4 -19 -9 -25 -9 -9 -59 -136 -82 -209 -7 -22
-21 -56 -32 -75 -12 -19 -34 -60 -50 -90 -16 -30 -35 -59 -43 -63 -8 -4 -14
-13 -14 -18 0 -6 -9 -22 -20 -36 -11 -14 -20 -39 -20 -55 0 -17 -9 -42 -19
-57 -11 -15 -27 -53 -36 -86 -9 -33 -24 -82 -32 -110 -8 -27 -20 -72 -25 -100
-6 -27 -17 -67 -24 -88 -8 -20 -14 -51 -14 -68 0 -16 -11 -52 -25 -79 -21 -41
-31 -50 -60 -56 -39 -7 -49 -17 -59 -56 -9 -39 -30 -55 -78 -62 -158 -24 -370
-71 -488 -109 -25 -8 -97 -27 -160 -42 -63 -15 -135 -38 -160 -51 -25 -13 -51
-24 -58 -24 -7 0 -30 -9 -50 -19 -20 -11 -66 -27 -102 -37 -106 -28 -203 -54
-240 -65 -19 -6 -89 -37 -155 -69 -66 -32 -140 -67 -165 -76 -115 -46 -240
-149 -370 -302 -29 -34 -75 -76 -102 -92 -59 -36 -73 -63 -64 -123 6 -40 15
-52 72 -102 35 -31 76 -76 89 -100 14 -23 76 -87 136 -140 84 -74 135 -110
208 -146 53 -27 102 -49 110 -49 7 0 34 -14 59 -31 62 -42 135 -73 218 -93 38
-10 87 -23 109 -31 22 -7 52 -16 67 -19 15 -3 33 -12 40 -19 44 -45 120 -87
155 -87 21 0 70 -7 108 -15 39 -9 90 -20 115 -24 121 -23 212 -45 280 -67 97
-32 127 -41 171 -48 20 -4 44 -15 54 -26 12 -14 25 -18 41 -14 13 4 24 2 24
-2 3 -99 34 -342 54 -420 14 -54 54 -230 90 -390 70 -315 97 -399 253 -774
103 -245 116 -291 102 -342 -5 -21 -18 -42 -29 -48 -21 -11 -1490 -8 -1655 4
-170 11 -163 12 -192 -16 -16 -14 -58 -46 -95 -70 -93 -61 -205 -185 -213
-235 -4 -21 -13 -59 -21 -85 -8 -25 -19 -79 -23 -120 -8 -71 -8 -75 30 -163
22 -49 45 -94 52 -100 23 -18 97 -178 97 -209 0 -19 77 -191 102 -227 13 -19
34 -68 48 -109 14 -41 53 -131 87 -200 35 -68 63 -129 63 -135 0 -16 101 -247
121 -276 10 -14 24 -43 32 -65 32 -87 96 -234 120 -275 47 -80 67 -156 67
-249 l0 -85 -167 -95 c-179 -101 -179 -102 -475 -372 -198 -181 -295 -274
-384 -369 -67 -72 -267 -337 -311 -412 -20 -33 -50 -76 -68 -96 -18 -20 -61
-88 -95 -151 -35 -63 -69 -122 -75 -130 -25 -32 -69 -131 -136 -305 -12 -33
-33 -73 -45 -90 -12 -16 -36 -79 -53 -140 -17 -60 -36 -126 -41 -145 -14 -47
-41 -158 -47 -195 -3 -16 -12 -39 -19 -50 -16 -26 -52 -158 -70 -261 -7 -45
-19 -95 -26 -110 -10 -23 -13 -233 -15 -939 -2 -553 -7 -934 -13 -971 -5 -33
-10 -123 -10 -200 0 -120 4 -154 28 -244 27 -103 31 -110 207 -384 l180 -278
183 -139 c161 -121 197 -143 295 -184 62 -25 132 -56 157 -69 l45 -23 563 10
c465 9 565 8 572 -3 7 -11 263 -12 1472 -5 1848 11 1804 11 2729 0 578 -6 784
-5 808 3 25 9 778 15 2855 22 l2821 11 135 56 c74 31 153 65 175 76 103 51
217 142 357 284 l146 148 85 185 c103 226 103 228 116 317 15 99 14 154 -4
196 -19 46 -19 106 -1 154 12 31 15 192 20 927 l6 890 -24 85 c-14 47 -73 277
-131 511 -72 287 -116 444 -136 483 -16 31 -29 63 -29 70 0 7 -8 31 -19 53
-10 21 -40 86 -66 142 -60 131 -44 108 -339 523 l-249 350 -398 364 c-220 200
-418 376 -441 392 -31 21 -53 49 -85 108 -23 44 -43 86 -43 93 0 7 172 459
382 1004 l382 992 -50 145 -49 146 -143 101 -143 102 -117 12 c-90 10 -302 11
-924 6 l-806 -7 -16 70 c-9 39 -16 80 -16 93 0 13 77 203 171 423 l171 400 79
480 c43 264 79 486 79 493 0 7 11 17 24 22 13 5 35 20 49 34 15 15 37 26 53
26 15 0 41 4 58 10 17 5 72 22 121 36 173 51 223 68 725 247 l505 180 210 178
c116 98 236 200 267 226 55 46 57 50 57 97 1 42 -5 57 -45 112 -25 35 -52 64
-61 64 -9 0 -72 56 -141 125 -69 69 -143 136 -166 149 -98 55 -114 63 -161 81
-27 10 -68 30 -90 44 -74 47 -154 75 -360 126 -60 14 -132 37 -160 49 -57 27
-80 35 -220 82 -55 19 -129 40 -165 48 -36 7 -81 22 -100 34 -19 11 -59 23
-89 26 -30 4 -63 12 -73 17 -9 5 -53 14 -95 19 -197 23 -254 39 -273 75 -7 13
-32 38 -56 55 -59 42 -75 84 -129 335 -9 44 -26 101 -36 127 -10 26 -19 57
-19 69 0 13 -11 34 -24 48 -23 25 -126 214 -126 231 0 5 -13 30 -30 57 -16 26
-34 71 -41 98 -10 45 -38 121 -87 240 -10 22 -26 51 -38 65 -12 14 -29 43 -38
65 -10 22 -30 67 -46 100 -16 33 -34 76 -40 96 -6 20 -25 54 -43 75 -18 21
-50 73 -70 114 -40 79 -61 118 -91 163 -13 19 -15 31 -8 40 16 19 2 66 -24 84
-13 8 -26 24 -30 35 -8 25 -96 148 -142 197 -53 58 -100 132 -120 187 -11 32
-31 63 -55 84 -21 18 -45 46 -53 61 -10 19 -27 32 -54 39 -46 12 -60 25 -105
95 -33 52 -35 53 -72 48 -29 -4 -52 2 -100 26 -34 17 -74 31 -88 31 -14 0 -38
6 -53 14 -15 7 -61 16 -102 19 -41 4 -90 12 -108 18 -23 8 -60 9 -115 4 -45
-4 -120 -9 -167 -11 -170 -7 -208 -14 -262 -50 -27 -19 -56 -34 -64 -34 -8 0
-53 -25 -100 -56 -99 -64 -162 -97 -222 -115 -24 -7 -62 -29 -85 -49 -23 -20
-58 -42 -77 -50 -19 -7 -57 -23 -85 -36 -27 -12 -68 -28 -90 -35 -22 -7 -56
-23 -76 -36 -23 -15 -58 -26 -93 -30 -36 -4 -56 -10 -56 -19 0 -50 -150 -88
-345 -88 -179 1 -332 26 -411 67 -32 17 -84 71 -84 88 0 5 -24 9 -54 9 -43 0
-74 10 -161 50 -59 28 -121 61 -139 73 -30 23 -45 30 -156 81 -132 61 -205
116 -222 168 -18 54 -41 61 -174 52 -65 -4 -114 -2 -135 5 -19 6 -79 15 -134
21 -55 5 -116 12 -135 14 -20 2 -57 -4 -85 -14z m-655 -5185 c69 -8 161 -18
205 -23 50 -6 103 -20 140 -36 47 -22 67 -26 95 -20 59 12 396 10 540 -4 74
-7 189 -16 255 -19 82 -4 127 -11 143 -21 20 -13 91 -15 515 -13 442 2 497 1
537 -15 74 -28 124 -29 182 -4 50 21 56 22 547 19 430 -2 500 0 526 13 21 11
74 17 180 21 83 3 220 12 305 19 168 14 385 16 438 3 31 -7 99 6 127 25 19 13
101 29 175 35 41 4 120 12 175 20 55 8 150 17 210 20 96 5 117 4 165 -14 30
-12 63 -30 73 -42 35 -43 13 -149 -32 -149 -27 0 -48 -30 -54 -78 -7 -56 -22
-72 -67 -72 -46 0 -128 -33 -136 -55 -5 -13 -1 -49 22 -180 6 -32 -30 -154
-65 -223 -13 -25 -21 -61 -21 -89 0 -26 -7 -59 -15 -73 -8 -14 -27 -52 -42
-85 -65 -142 -113 -219 -183 -301 -74 -86 -115 -114 -164 -114 -28 0 -46 -25
-46 -64 0 -13 -12 -39 -27 -56 -23 -28 -47 -42 -168 -96 -70 -31 -199 -67
-325 -90 -201 -37 -212 -38 -287 -20 -37 9 -96 20 -131 25 -137 21 -307 101
-417 196 -33 28 -81 66 -107 84 -27 17 -55 46 -64 62 -8 17 -37 52 -63 77 -45
44 -68 80 -156 247 -20 39 -42 77 -50 85 -7 8 -23 35 -36 60 -20 40 -23 60
-23 169 l-1 125 -39 20 c-26 14 -43 32 -50 53 -16 46 -25 51 -46 23 -11 -14
-20 -19 -20 -13 0 7 -15 20 -32 29 -69 36 -348 14 -348 -26 0 -7 -6 -7 -19 0
-16 8 -24 4 -51 -30 -17 -22 -39 -40 -49 -40 -35 0 -41 -21 -41 -147 0 -111
-3 -129 -24 -171 -13 -26 -33 -58 -45 -71 -12 -13 -21 -29 -21 -35 1 -6 -23
-58 -52 -115 -36 -70 -70 -121 -105 -156 -29 -30 -53 -58 -53 -64 0 -18 -71
-91 -104 -108 -17 -9 -57 -41 -89 -71 -65 -63 -169 -119 -291 -156 -45 -14
-115 -35 -156 -48 -90 -27 -216 -30 -300 -5 -30 9 -86 21 -124 27 -195 30
-444 149 -486 230 -26 52 -44 68 -90 80 -27 7 -50 24 -77 57 -21 26 -54 65
-74 88 -43 49 -102 149 -119 201 -7 22 -24 64 -37 94 -14 30 -29 81 -33 113
-5 36 -20 76 -38 105 -17 26 -36 67 -43 92 -7 25 -16 49 -21 54 -11 13 -10
103 1 110 11 7 24 110 16 135 -7 23 -84 61 -123 61 -42 0 -65 23 -77 76 -8 40
-17 53 -52 76 -45 31 -59 66 -48 118 7 30 31 49 100 77 36 14 201 9 385 -12z
m-103 -3874 c32 -17 72 -44 88 -61 17 -18 60 -47 98 -66 85 -43 169 -97 227
-144 25 -20 70 -48 100 -63 30 -14 71 -42 90 -62 19 -20 64 -51 100 -69 79
-40 171 -98 225 -142 22 -18 70 -46 107 -64 36 -17 89 -51 118 -76 28 -24 56
-44 60 -44 20 0 80 -63 80 -85 0 -39 41 -86 93 -106 52 -19 66 -32 99 -94 11
-22 40 -62 64 -90 24 -27 44 -55 44 -62 0 -21 86 -179 129 -235 21 -29 54 -84
72 -123 18 -38 56 -104 85 -146 56 -82 114 -185 114 -204 0 -6 18 -31 40 -55
39 -42 40 -45 40 -118 0 -45 7 -93 17 -123 15 -42 16 -54 4 -96 -7 -26 -17
-66 -22 -88 -4 -22 -19 -65 -33 -95 -13 -30 -39 -116 -56 -190 -17 -74 -37
-161 -45 -192 -8 -32 -15 -65 -15 -74 0 -10 -12 -41 -26 -71 -15 -30 -30 -71
-34 -91 -5 -20 -15 -62 -23 -92 -8 -30 -20 -82 -27 -115 -6 -33 -16 -71 -21
-85 -4 -14 -11 -47 -15 -75 -4 -27 -13 -67 -20 -89 -8 -21 -14 -51 -14 -67 0
-16 -9 -46 -20 -66 -11 -21 -23 -53 -26 -73 -4 -19 -10 -39 -14 -45 -4 -5 -17
-48 -28 -95 -11 -47 -28 -114 -37 -150 -9 -36 -20 -90 -25 -121 -4 -30 -12
-65 -19 -77 -6 -11 -11 -31 -11 -44 0 -13 -9 -38 -20 -56 -24 -38 -44 -106
-72 -242 -43 -212 -53 -251 -82 -320 -28 -65 -42 -117 -62 -224 -8 -44 -19
-87 -25 -97 -5 -10 -9 -30 -9 -46 0 -38 -58 -279 -78 -323 -9 -19 -18 -57 -21
-85 -5 -40 -11 -52 -33 -64 -40 -23 -64 3 -71 77 -3 31 -11 80 -17 107 -7 28
-15 77 -20 110 -10 70 -42 207 -60 250 -14 35 -37 143 -50 235 -5 36 -11 72
-14 80 -3 8 -12 51 -20 95 -18 95 -49 223 -70 285 -16 49 -43 168 -56 253 -16
102 -30 183 -39 222 -5 22 -15 67 -21 100 -20 104 -52 230 -61 241 -4 5 -16
50 -25 100 -9 49 -20 107 -24 129 -4 22 -22 117 -39 210 -18 94 -41 208 -52
255 -10 47 -19 96 -19 107 0 12 -4 24 -9 27 -9 6 -17 34 -50 176 -22 96 -37
172 -46 245 -8 61 -47 224 -68 285 -9 25 -25 90 -37 145 -11 55 -25 119 -30
143 -6 23 -10 52 -10 65 0 59 -69 381 -109 502 -26 81 -54 225 -92 465 -14 90
-59 266 -80 318 -18 41 -42 163 -59 302 -5 36 -14 88 -20 115 -17 81 -23 133
-17 150 10 24 60 18 124 -14z m5377 13 c19 -18 19 -19 7 -81 -5 -26 -14 -82
-21 -123 -6 -41 -18 -106 -26 -145 -8 -38 -18 -97 -23 -130 -22 -133 -38 -211
-47 -230 -6 -11 -17 -47 -24 -80 -7 -33 -17 -64 -21 -70 -4 -5 -12 -37 -18
-70 -7 -33 -16 -80 -21 -105 -5 -25 -12 -67 -16 -95 -3 -27 -12 -72 -19 -100
-7 -27 -16 -71 -20 -97 -3 -26 -10 -50 -15 -53 -4 -3 -13 -29 -20 -57 -7 -29
-21 -80 -31 -112 -10 -33 -19 -75 -19 -94 0 -20 -4 -49 -9 -66 -14 -47 -42
-193 -51 -266 -15 -113 -37 -216 -54 -250 -9 -18 -21 -62 -27 -97 -6 -34 -15
-66 -20 -69 -5 -3 -9 -24 -9 -47 0 -23 -7 -67 -16 -97 -9 -30 -20 -86 -25
-125 -12 -106 -35 -209 -57 -252 -10 -21 -22 -60 -26 -88 -3 -27 -11 -54 -16
-59 -6 -6 -10 -21 -10 -35 0 -15 -7 -55 -16 -91 -16 -66 -24 -114 -43 -255 -7
-44 -18 -106 -26 -138 -8 -32 -15 -70 -15 -83 0 -14 -11 -46 -24 -72 -13 -26
-27 -69 -31 -97 -4 -27 -13 -65 -21 -84 -8 -18 -14 -51 -14 -72 0 -21 -4 -58
-10 -81 -15 -67 -41 -207 -50 -268 -5 -30 -16 -81 -24 -113 -9 -32 -16 -68
-16 -80 0 -12 -10 -38 -21 -57 -12 -19 -25 -57 -30 -85 -30 -188 -52 -312 -74
-415 -8 -36 -17 -89 -21 -118 -4 -29 -10 -55 -14 -57 -15 -9 -90 -361 -90
-421 0 -54 -20 -104 -45 -116 -32 -14 -51 1 -58 49 -4 20 -17 73 -31 117 -13
45 -36 135 -51 201 -14 66 -35 156 -45 200 -11 44 -29 120 -41 168 -11 48 -29
109 -39 135 -10 26 -33 108 -51 182 -32 137 -74 288 -102 370 -23 69 -32 101
-76 295 -59 251 -60 258 -105 385 -21 59 -69 246 -82 320 -24 132 -47 217 -89
325 -32 84 -61 192 -85 315 -23 114 -30 139 -66 215 -12 28 -33 87 -45 133
-21 79 -21 85 -6 140 9 31 18 90 21 130 4 63 9 77 35 107 16 19 38 51 47 72
10 21 49 85 86 142 38 57 87 138 109 180 22 42 52 94 69 116 38 52 95 151 121
210 7 17 34 62 59 100 26 39 62 93 80 122 19 29 46 58 60 65 76 38 96 57 108
97 9 30 25 50 58 73 24 18 66 50 92 71 26 21 77 54 113 72 36 18 88 50 115 71
47 36 189 124 247 154 15 7 50 33 77 56 27 23 71 52 97 65 26 12 70 40 96 62
51 42 118 84 200 127 27 14 69 43 94 65 52 44 157 102 190 104 12 1 29 -6 37
-15z"/>
<path d="M8274 16295 c-10 -8 -14 -14 -9 -15 15 0 40 18 34 24 -3 3 -14 -1
-25 -9z"/>
<path d="M12768 16283 c7 -3 16 -2 19 1 4 3 -2 6 -13 5 -11 0 -14 -3 -6 -6z"/>
</g>
</svg>
