<?xml version="1.0" standalone="no"?>
<!DOCTYPE svg PUBLIC "-//W3C//DTD SVG 20010904//EN"
 "http://www.w3.org/TR/2001/REC-SVG-20010904/DTD/svg10.dtd">
<svg version="1.0" xmlns="http://www.w3.org/2000/svg"
 width="2100.000000pt" height="1677.000000pt" viewBox="0 0 2100.000000 1677.000000"
 preserveAspectRatio="xMidYMid meet">

<g transform="translate(0.000000,1677.000000) scale(0.100000,-0.100000)"
fill="#fff" stroke="none">
<path d="M8734 16490 c-31 -12 -37 -37 -14 -60 16 -16 34 -20 85 -20 36 0 65
2 65 3 0 2 -17 22 -38 45 -39 42 -58 48 -98 32z"/>
<path d="M12168 16458 c-21 -23 -38 -43 -38 -45 0 -2 29 -3 65 -3 51 0 69 4
85 20 23 23 17 48 -17 61 -41 15 -57 10 -95 -33z"/>
<path d="M8233 16395 c-34 -14 -43 -31 -43 -79 0 -22 -10 -45 -34 -72 -18 -21
-43 -58 -54 -80 -25 -50 -103 -94 -164 -94 -47 0 -58 -21 -58 -111 0 -48 -4
-61 -20 -71 -11 -7 -20 -18 -20 -24 0 -18 -97 -146 -130 -172 -16 -13 -30 -28
-30 -34 0 -6 -18 -35 -40 -64 -22 -29 -45 -65 -52 -79 -6 -14 -20 -25 -30 -25
-27 0 -74 -26 -82 -45 -6 -16 37 -65 57 -65 6 0 4 -6 -5 -12 -8 -7 -21 -29
-29 -48 -7 -19 -30 -64 -51 -99 -20 -35 -40 -77 -43 -92 -4 -16 -14 -31 -23
-34 -18 -5 -62 -75 -62 -97 0 -6 -15 -46 -34 -88 -18 -41 -42 -94 -52 -118
-10 -24 -26 -48 -36 -53 -19 -10 -58 -79 -58 -101 0 -8 -13 -45 -30 -83 -16
-39 -30 -80 -30 -92 0 -31 -13 -35 -55 -17 -62 26 -107 -8 -87 -66 11 -31 -5
-149 -24 -185 -6 -11 -14 -39 -17 -63 -3 -26 -13 -49 -26 -60 -12 -9 -25 -37
-30 -62 -12 -62 -59 -245 -77 -300 -8 -25 -14 -56 -14 -70 0 -26 -27 -107 -43
-127 -5 -7 -23 -13 -39 -13 -48 0 -68 -16 -68 -55 0 -48 -22 -65 -83 -65 -29
0 -74 -7 -101 -15 -27 -8 -68 -15 -91 -15 -23 0 -64 -6 -91 -14 -27 -8 -74
-17 -104 -21 -30 -3 -63 -14 -73 -23 -18 -16 -51 -24 -262 -57 -122 -19 -137
-24 -129 -37 4 -7 -13 -8 -52 -4 -33 3 -77 2 -99 -3 l-40 -8 40 -7 c22 -4 47
-8 55 -9 8 -1 16 -12 18 -24 3 -17 -3 -24 -25 -28 -15 -3 -52 -13 -81 -21 -60
-17 -82 -11 -57 16 10 11 15 30 13 47 -2 23 -9 30 -39 37 -49 12 -83 2 -98
-30 -15 -34 5 -68 52 -88 l32 -13 -30 -7 c-16 -4 -43 -11 -60 -17 -16 -6 -64
-23 -105 -37 -41 -15 -83 -36 -93 -48 -9 -13 -39 -30 -65 -39 -106 -39 -241
-114 -283 -160 -23 -24 -58 -55 -78 -67 -39 -24 -71 -55 -71 -71 0 -5 -13 -24
-29 -43 -40 -45 -55 -27 -49 59 3 52 9 70 31 96 31 37 34 57 11 89 -20 29 -76
30 -104 2 -25 -25 -25 -44 -1 -84 14 -23 20 -57 23 -134 l5 -103 -33 -26 c-33
-25 -34 -27 -34 -98 0 -70 2 -75 34 -107 l35 -35 -6 -99 c-4 -58 -12 -107 -19
-119 -15 -21 -18 -63 -6 -81 15 -23 50 -34 75 -25 45 17 50 74 11 120 -22 26
-25 38 -22 88 4 74 23 77 59 10 17 -32 43 -60 81 -85 71 -47 118 -88 118 -101
0 -13 203 -116 248 -126 18 -4 53 -22 77 -41 25 -19 51 -34 57 -34 7 0 36 -12
65 -26 l51 -26 -24 -25 c-29 -29 -31 -62 -6 -94 l19 -22 71 22 c64 21 70 25
61 42 -5 11 -24 25 -42 32 l-32 14 29 7 c20 5 36 2 55 -11 14 -9 46 -20 71
-23 59 -7 60 -30 3 -45 -23 -5 -45 -13 -48 -17 -10 -10 81 -21 111 -14 17 5
35 1 51 -9 13 -9 54 -20 91 -25 79 -9 179 -27 242 -41 25 -6 74 -15 108 -19
41 -5 72 -15 85 -28 14 -13 44 -23 82 -27 33 -4 68 -12 78 -17 9 -5 43 -12 75
-16 57 -7 57 -7 62 -45 4 -28 12 -41 30 -50 l25 -13 7 -224 c8 -252 4 -320
-20 -367 -15 -30 -15 -35 1 -69 18 -36 19 -36 62 -31 55 8 55 8 85 -138 33
-167 60 -258 80 -275 10 -8 25 -41 33 -73 l14 -59 -34 -16 c-41 -19 -56 -60
-28 -76 63 -37 108 -100 146 -204 6 -18 30 -52 53 -75 57 -59 100 -182 83
-236 l-12 -36 -755 -3 c-415 -1 -765 0 -778 3 -14 4 -28 20 -38 45 l-16 40
-77 0 -77 0 -17 -34 c-16 -35 -59 -56 -114 -56 -13 0 -23 -6 -23 -14 0 -8 -21
-26 -47 -41 -50 -29 -92 -71 -93 -93 0 -6 -26 -39 -58 -72 -59 -60 -73 -89
-87 -177 -5 -34 -11 -43 -27 -43 -15 0 -18 4 -13 18 12 27 7 61 -12 87 -23 31
-29 31 -70 -1 -46 -35 -42 -56 15 -87 42 -23 50 -32 61 -74 15 -53 15 -82 6
-189 -8 -78 5 -104 50 -104 53 0 70 -16 102 -96 18 -44 35 -92 39 -109 4 -16
20 -57 34 -91 15 -33 31 -75 35 -93 4 -18 13 -35 20 -38 17 -6 52 -72 64 -121
21 -82 73 -207 95 -227 12 -12 30 -41 38 -66 8 -24 21 -60 27 -79 7 -19 22
-62 33 -95 34 -97 60 -154 80 -172 10 -9 18 -21 18 -27 0 -6 16 -47 35 -91 19
-44 35 -88 35 -98 0 -24 46 -114 61 -119 16 -5 52 -105 51 -143 -1 -129 -11
-160 -61 -176 -48 -16 -79 -37 -86 -59 -3 -10 -27 -27 -53 -38 -26 -12 -76
-37 -112 -56 -36 -19 -82 -42 -102 -52 -20 -10 -41 -27 -46 -38 -5 -12 -31
-32 -58 -44 -27 -13 -65 -31 -84 -40 -19 -10 -37 -19 -40 -22 -3 -3 -17 -12
-31 -20 -15 -8 -58 -36 -95 -61 -38 -25 -80 -50 -94 -54 -53 -16 -150 -68
-155 -84 -3 -9 -21 -23 -40 -30 -19 -7 -35 -17 -35 -22 0 -5 -20 -9 -45 -9
-52 0 -105 -23 -105 -45 0 -14 59 -45 87 -45 7 0 26 20 41 45 16 27 34 44 46
45 31 0 104 41 109 61 3 10 27 27 53 39 27 12 67 31 89 42 48 26 80 42 120 60
17 7 49 32 73 56 31 30 52 42 73 42 33 0 39 -15 10 -25 -11 -3 -28 -21 -39
-40 -21 -34 -94 -96 -151 -127 -17 -9 -35 -28 -40 -41 -15 -38 -69 -95 -119
-124 -26 -16 -50 -39 -57 -57 -13 -30 -81 -109 -101 -117 -5 -2 -27 -29 -49
-60 -22 -31 -53 -75 -70 -99 -16 -23 -49 -63 -72 -88 -24 -26 -61 -84 -84
-130 -24 -49 -53 -92 -71 -105 -16 -12 -43 -49 -59 -82 -43 -90 -86 -167 -110
-195 -28 -32 -73 -134 -126 -285 -13 -38 -33 -77 -43 -86 -26 -22 -57 -110
-100 -284 -43 -171 -70 -258 -84 -268 -9 -7 -18 -34 -22 -62 -3 -27 -12 -67
-20 -88 -8 -20 -14 -61 -15 -90 0 -28 -4 -61 -9 -72 -7 -19 -8 -19 -14 5 -4
14 -5 196 -4 405 3 311 6 386 18 413 14 32 14 35 -8 53 -21 16 -27 17 -54 6
-52 -21 -58 -42 -20 -76 l32 -30 0 -683 c0 -376 -4 -688 -8 -695 -4 -6 -23
-15 -42 -20 -35 -9 -35 -9 -38 -73 -4 -94 2 -110 41 -110 18 0 38 -5 45 -12
17 -17 17 -1174 0 -1184 -7 -4 -28 -10 -48 -14 l-35 -5 0 -85 0 -84 35 -9 c19
-5 38 -14 42 -20 4 -7 8 -143 8 -304 l0 -292 -30 -28 c-36 -33 -33 -55 10 -73
58 -24 100 23 66 72 -13 18 -16 50 -16 158 0 74 3 146 7 159 6 22 9 18 25 -30
10 -30 24 -70 29 -89 6 -19 22 -44 35 -55 13 -11 35 -47 47 -80 34 -87 97
-179 179 -266 40 -41 85 -89 99 -105 14 -16 56 -49 93 -74 37 -25 86 -60 109
-78 52 -43 93 -63 192 -97 44 -15 85 -32 91 -37 7 -5 31 -12 55 -16 51 -9 65
-36 26 -51 -22 -9 -246 -5 -294 5 -13 2 -23 10 -23 18 0 20 -34 46 -61 46 -57
0 -89 -70 -50 -109 26 -26 46 -26 94 -1 34 19 56 20 309 20 280 -1 296 -3 310
-41 7 -17 49 -29 102 -29 55 0 73 10 80 41 4 19 14 33 31 39 36 14 10914 14
10950 0 17 -6 27 -20 31 -39 7 -31 25 -41 80 -41 53 0 95 12 102 29 14 38 30
40 309 41 258 0 275 -1 313 -21 67 -35 119 -5 105 62 -13 58 -91 65 -119 10
l-15 -28 -140 -6 c-85 -4 -151 -3 -167 3 -39 15 -27 41 26 55 25 7 70 23 100
35 30 11 74 27 98 35 51 16 138 70 146 90 3 8 12 15 20 15 8 0 36 17 63 39 27
21 64 46 81 55 17 9 38 29 46 44 8 15 47 59 87 99 80 77 145 174 179 266 12
32 32 64 45 73 13 9 27 30 30 47 4 18 13 46 20 62 7 17 16 43 20 59 14 63 25
-2 25 -150 0 -123 -3 -154 -15 -164 -37 -31 2 -87 54 -75 16 3 35 13 41 20 12
15 5 55 -10 55 -5 0 -16 7 -24 16 -14 13 -16 55 -16 309 0 318 1 325 55 325
29 0 35 16 35 90 0 78 -6 90 -44 90 -18 0 -37 5 -44 12 -17 17 -17 1169 0
1186 7 7 27 12 45 12 39 0 45 16 41 110 l-3 64 -38 9 c-26 6 -39 16 -42 31 -3
11 -4 314 -3 672 l3 650 28 33 c15 19 27 41 25 50 -4 22 -54 44 -84 37 -35 -9
-40 -31 -20 -85 14 -40 16 -94 15 -391 0 -330 -7 -429 -22 -351 -4 19 -7 51
-7 72 0 21 -5 50 -11 66 -6 15 -15 55 -20 88 -6 35 -19 69 -30 81 -11 12 -24
46 -29 78 -5 31 -12 61 -16 67 -3 6 -16 52 -29 104 -13 51 -28 102 -34 113 -6
12 -11 32 -11 46 0 32 -38 113 -67 142 -13 13 -23 31 -23 40 0 9 -16 50 -35
91 -19 41 -38 87 -42 102 -8 34 -52 123 -68 136 -14 12 -94 153 -119 212 -11
24 -27 45 -37 48 -21 7 -44 40 -84 121 -16 34 -47 82 -67 105 -82 97 -141 176
-160 217 -11 24 -33 49 -48 57 -31 16 -77 67 -102 113 -9 17 -31 38 -49 47
-34 18 -82 67 -121 124 -13 19 -41 44 -62 56 -40 22 -83 71 -72 82 10 10 183
-77 218 -110 10 -9 25 -17 33 -17 8 0 19 -9 25 -19 5 -11 22 -26 37 -34 74
-39 103 -54 146 -72 43 -18 48 -25 62 -71 14 -50 30 -63 73 -64 22 0 52 39 52
68 0 44 -31 66 -81 59 -33 -4 -50 -1 -78 17 -20 12 -61 34 -93 48 -33 16 -59
34 -62 46 -7 21 -79 62 -109 62 -9 0 -17 4 -17 10 0 5 -11 12 -25 16 -14 3
-25 9 -25 13 0 7 -73 46 -103 55 -11 4 -21 14 -24 24 -2 10 -24 29 -49 42 -24
14 -44 28 -44 32 0 4 -16 10 -36 14 -25 4 -52 22 -85 55 -27 27 -55 49 -61 49
-6 0 -52 24 -102 54 -50 30 -100 57 -111 60 -24 7 -44 44 -57 106 -20 96 -20
115 1 170 12 30 21 64 21 74 0 24 37 104 61 131 9 11 22 36 27 55 6 19 20 60
32 90 11 30 25 73 30 95 9 39 27 99 57 183 8 24 23 51 33 60 16 15 58 130 106
286 10 33 26 68 37 79 10 10 27 42 36 70 35 103 59 174 97 290 24 75 45 122
56 128 11 6 21 27 24 51 8 50 34 78 72 78 15 0 33 5 40 12 18 18 15 139 -4
166 -15 21 -14 28 2 88 15 57 21 67 49 78 48 21 65 50 52 91 -7 23 -18 36 -34
40 -54 13 -83 -19 -83 -90 0 -58 -17 -48 -30 17 -17 86 -52 151 -95 176 -19
12 -40 33 -45 48 -6 14 -24 39 -42 55 -35 33 -33 45 5 28 22 -10 31 -8 61 11
20 12 36 29 36 38 0 21 -49 72 -70 72 -28 0 -79 -55 -73 -79 7 -26 -2 -27 -34
-1 -14 11 -38 20 -54 20 -43 0 -58 10 -80 51 l-19 39 -76 0 -75 0 -14 -33 c-7
-18 -25 -39 -40 -45 -19 -9 -224 -12 -805 -12 -760 0 -780 0 -790 19 -14 28
-12 85 4 123 8 18 20 49 27 68 7 19 32 54 56 77 26 27 47 59 54 86 20 77 69
145 122 171 13 7 23 23 25 38 3 21 -3 30 -27 42 -16 9 -32 20 -35 25 -11 17
15 111 35 125 19 13 64 166 89 306 13 72 43 140 54 121 10 -15 61 -14 75 2 21
26 25 76 7 96 -14 16 -16 50 -14 302 l3 283 25 13 c18 9 26 22 30 50 5 38 5
38 60 44 30 4 67 11 81 17 14 5 52 13 85 17 37 5 67 15 81 27 13 12 45 23 80
28 57 8 106 17 248 45 39 8 96 17 127 20 32 4 60 11 63 16 4 5 32 9 63 10 31
1 68 4 82 9 23 7 21 8 -22 21 -34 9 -48 18 -48 30 0 13 12 20 48 25 26 4 56
13 67 20 22 16 71 19 80 5 3 -5 -10 -14 -29 -21 -55 -18 -56 -59 -1 -60 11 0
29 -7 39 -15 28 -21 52 -19 70 7 23 33 20 73 -8 95 l-24 19 42 21 c22 12 52
25 66 29 14 4 36 16 50 28 14 11 46 29 70 39 157 65 245 114 300 169 32 31 75
65 97 75 26 13 46 32 64 66 47 88 69 86 69 -6 0 -37 -6 -57 -26 -82 -31 -41
-26 -87 13 -112 22 -15 28 -15 51 -2 37 20 46 65 22 105 -16 25 -20 49 -20
126 l0 95 36 39 c36 37 36 39 31 103 -4 57 -9 68 -36 90 l-31 26 0 102 c0 85
3 108 20 135 25 42 25 63 0 88 -24 24 -72 26 -94 4 -22 -21 -20 -66 4 -96 14
-19 20 -44 22 -96 2 -39 0 -74 -5 -78 -9 -10 -55 33 -63 60 -8 27 -44 66 -61
66 -7 0 -42 29 -77 64 -63 62 -151 114 -314 182 -24 9 -47 25 -53 35 -5 10
-23 20 -40 24 -17 4 -56 18 -86 31 -30 14 -78 30 -107 36 l-51 11 34 11 c59
21 78 69 41 106 -39 39 -138 17 -132 -30 1 -13 9 -31 18 -41 23 -25 -3 -31
-63 -14 -26 8 -61 17 -76 20 -22 4 -28 10 -25 28 3 19 10 22 53 25 28 2 54 7
58 11 13 13 -94 21 -143 11 -61 -12 -61 -12 -58 7 2 14 -8 19 -52 26 -30 4
-89 14 -130 22 -41 8 -97 17 -125 21 -27 4 -61 15 -75 25 -14 10 -57 23 -96
29 -40 5 -84 14 -98 20 -15 5 -47 10 -70 10 -24 0 -65 7 -92 15 -27 8 -72 15
-101 15 -60 0 -83 17 -83 60 0 38 -24 60 -64 60 -19 0 -38 6 -43 13 -16 20
-43 101 -43 127 0 13 -6 42 -14 65 -7 22 -22 76 -32 120 -9 44 -21 88 -26 98
-5 10 -13 43 -18 73 -7 39 -17 63 -35 80 -19 17 -25 33 -25 64 0 27 -7 47 -20
60 -13 13 -18 28 -15 43 2 12 1 38 -4 57 -5 19 -9 30 -10 23 -1 -6 -6 -24 -12
-40 -8 -22 -12 -24 -19 -13 -17 26 -11 57 14 74 35 22 44 73 17 99 -20 20 -22
20 -71 5 l-50 -16 -6 26 c-6 30 -54 159 -87 234 -11 26 -28 50 -37 53 -10 3
-31 37 -48 78 -54 130 -71 172 -82 204 -7 18 -24 45 -38 60 -14 16 -56 87 -93
159 -62 122 -65 132 -48 142 10 6 23 21 29 32 15 28 -27 70 -70 70 -16 0 -30
4 -30 8 0 4 -25 45 -55 91 -30 46 -55 87 -55 91 0 5 -8 11 -18 14 -26 8 -97
105 -127 171 -17 40 -25 75 -25 115 0 85 -4 90 -62 90 -32 0 -68 9 -104 26
-45 21 -59 34 -79 74 -13 26 -38 63 -54 81 -23 24 -31 44 -33 78 -3 41 -7 48
-38 63 -47 24 -74 7 -78 -49 -4 -48 9 -61 69 -71 29 -5 44 -13 44 -22 0 -20
-39 -25 -56 -8 -8 8 -41 22 -74 32 -33 10 -78 25 -101 33 -22 7 -72 16 -110
20 -38 3 -81 12 -96 19 -37 19 -148 18 -226 -2 -54 -14 -66 -14 -73 -3 -13 21
-11 24 21 36 17 6 30 16 30 22 0 31 -95 -8 -132 -53 -16 -19 -26 -21 -115 -18
-54 1 -112 0 -130 -3 -29 -5 -33 -10 -39 -51 -6 -44 -39 -84 -69 -84 -7 0 -18
-7 -26 -16 -15 -18 -162 -94 -181 -94 -21 0 -88 -39 -111 -65 -12 -13 -69 -43
-127 -66 -102 -41 -108 -42 -208 -40 -121 3 -132 -3 -132 -65 0 -41 -2 -45
-41 -65 -105 -53 -490 -55 -606 -4 -52 24 -53 24 -53 68 0 26 -6 49 -14 56 -9
8 -51 11 -123 10 -99 -2 -113 0 -168 25 -33 15 -83 37 -112 47 -29 11 -55 28
-58 38 -5 17 -80 61 -105 61 -20 0 -153 70 -173 91 -10 10 -24 19 -31 19 -30
0 -64 40 -70 84 -5 31 -13 47 -26 51 -10 3 -68 5 -130 3 -95 -3 -113 -1 -121
14 -12 22 -93 68 -119 68 -27 0 -22 -21 8 -35 21 -9 32 -45 14 -45 -5 0 -31 7
-58 15 -62 19 -196 20 -232 1 -15 -7 -60 -16 -100 -20 -41 -3 -86 -12 -100
-20 -15 -7 -43 -16 -64 -19 -20 -3 -61 -18 -91 -33 -54 -26 -93 -27 -85 -2 3
7 24 17 49 21 56 11 69 22 69 59 0 61 -28 84 -77 63z m-1247 -2070 c8 -21 -5
-70 -16 -59 -7 8 -14 47 -11 67 2 13 21 7 27 -8z m1199 -265 c0 -22 -29 -18
-33 3 -3 14 1 18 15 15 10 -2 18 -10 18 -18z m-295 -2911 c30 -5 107 -14 170
-19 63 -5 129 -14 145 -19 70 -23 119 -43 139 -56 30 -22 80 -19 102 6 17 19
25 20 154 14 74 -4 225 -13 335 -21 110 -8 241 -14 291 -14 86 0 93 -2 129
-30 42 -33 71 -38 101 -15 16 12 89 14 471 15 l452 0 31 -30 c28 -27 37 -30
96 -30 69 0 104 12 104 34 0 8 7 17 16 20 9 3 215 6 458 6 373 0 445 -2 462
-15 31 -23 70 -18 107 15 34 30 36 30 148 30 63 0 168 5 234 10 66 5 205 14
308 20 182 10 189 10 214 -10 32 -25 66 -25 118 -1 89 42 179 64 291 71 62 5
117 11 123 14 5 4 72 10 148 15 118 8 140 7 155 -6 9 -8 34 -21 55 -28 38 -13
38 -13 41 -73 l3 -59 -46 -12 -45 -11 0 -58 c0 -32 -5 -63 -12 -70 -7 -7 -31
-12 -53 -12 -24 0 -60 -10 -86 -23 l-44 -24 -3 -71 c-2 -53 1 -78 13 -94 18
-26 19 -61 4 -89 -6 -11 -17 -45 -25 -76 -8 -30 -24 -70 -37 -87 -17 -24 -22
-45 -22 -94 0 -53 -4 -66 -22 -80 -22 -17 -63 -99 -63 -126 0 -12 -28 -72 -66
-138 -7 -11 -44 -58 -83 -104 l-71 -84 -60 0 c-69 0 -80 -11 -80 -83 0 -39 -4
-48 -34 -71 -50 -38 -164 -94 -224 -111 -29 -8 -76 -21 -105 -29 -28 -9 -117
-23 -197 -32 -120 -13 -165 -13 -265 -4 -66 6 -138 18 -160 25 -22 7 -56 17
-75 20 -67 13 -218 95 -274 148 -29 29 -75 64 -102 78 -26 14 -55 39 -63 55
-32 58 -53 83 -84 102 -33 19 -106 146 -147 254 -10 28 -28 57 -40 65 -43 30
-55 79 -55 222 l0 134 -45 13 c-44 13 -46 16 -56 62 -5 27 -7 61 -3 76 10 38
3 53 -33 65 -40 14 -44 14 -62 -5 -23 -23 -19 -57 9 -82 14 -12 25 -32 24 -44
0 -23 0 -23 -9 -2 -20 49 -231 70 -327 33 -43 -17 -50 -7 -22 30 21 29 21 31
5 55 -19 30 -35 32 -76 11 -33 -17 -39 -48 -15 -75 14 -15 14 -18 0 -30 -8 -7
-15 -22 -15 -34 0 -34 -16 -50 -62 -61 l-43 -10 2 -85 c4 -162 2 -175 -20
-227 -12 -29 -30 -55 -39 -58 -9 -3 -22 -23 -29 -43 -7 -20 -36 -84 -66 -142
-40 -78 -63 -111 -90 -130 -20 -14 -46 -44 -58 -67 -22 -44 -62 -93 -77 -93
-20 0 -115 -72 -131 -99 -10 -17 -27 -33 -40 -37 -12 -3 -59 -24 -105 -45 -46
-22 -94 -39 -108 -39 -14 0 -37 -6 -52 -14 -15 -7 -55 -16 -89 -20 -35 -4 -79
-14 -100 -22 -39 -17 -127 -15 -198 4 -22 6 -85 18 -140 26 -90 13 -162 32
-281 72 -22 8 -62 29 -89 47 -27 17 -60 38 -74 46 -35 19 -41 29 -41 76 0 60
-11 70 -71 67 -53 -2 -53 -2 -111 60 -83 91 -178 235 -178 273 0 9 -14 50 -31
92 -23 55 -31 89 -30 129 1 37 -4 57 -15 66 -41 34 -52 53 -77 137 -27 85 -28
91 -12 120 11 23 15 52 13 103 l-3 71 -44 24 c-24 13 -59 23 -77 23 -58 0 -64
7 -64 70 0 61 -6 71 -55 87 -28 9 -30 12 -30 64 l0 54 47 22 c25 12 49 26 52
32 7 10 181 4 266 -10z m-1333 -451 c-3 -8 -6 -5 -6 6 -1 11 2 17 5 13 3 -3 4
-12 1 -19z m1315 -3442 c29 -13 63 -37 75 -54 14 -18 54 -46 100 -69 84 -42
158 -90 238 -153 28 -22 68 -45 89 -51 25 -7 55 -27 80 -54 23 -25 65 -54 96
-68 30 -13 79 -41 109 -61 29 -20 56 -36 60 -36 4 0 18 -11 31 -25 30 -32 112
-85 132 -85 22 0 127 -71 133 -90 3 -8 28 -26 56 -40 71 -33 79 -44 79 -101 0
-75 11 -89 71 -89 67 0 92 -19 125 -95 15 -36 34 -67 43 -70 22 -7 58 -62 80
-123 11 -28 28 -64 39 -79 11 -15 27 -45 35 -65 9 -21 20 -38 25 -38 12 0 77
-98 87 -130 11 -39 86 -174 101 -183 18 -10 78 -114 93 -160 7 -20 26 -47 43
-61 31 -23 31 -24 29 -115 -2 -80 1 -94 21 -121 20 -28 21 -34 9 -73 -7 -23
-18 -66 -26 -95 -7 -30 -20 -61 -29 -70 -14 -17 -38 -103 -70 -257 -10 -44
-22 -98 -27 -120 -6 -22 -15 -65 -20 -95 -6 -34 -17 -61 -29 -70 -12 -10 -25
-42 -36 -90 -9 -41 -27 -122 -39 -180 -27 -124 -40 -179 -55 -240 -6 -25 -16
-70 -22 -100 -6 -30 -19 -64 -29 -76 -11 -11 -23 -45 -28 -75 -5 -30 -14 -65
-19 -79 -6 -14 -18 -61 -26 -105 -9 -44 -23 -103 -31 -131 -8 -28 -15 -62 -15
-77 0 -14 -5 -38 -11 -54 -6 -15 -15 -53 -21 -83 -5 -30 -18 -64 -28 -75 -17
-18 -28 -57 -65 -235 -8 -36 -23 -99 -33 -140 -11 -41 -23 -91 -26 -111 -4
-20 -15 -44 -25 -54 -11 -9 -22 -36 -26 -58 -4 -23 -13 -64 -20 -92 -7 -27
-23 -95 -35 -150 -12 -55 -31 -136 -42 -180 -11 -44 -24 -102 -29 -129 -4 -27
-17 -58 -28 -70 -10 -12 -23 -46 -28 -76 -14 -90 -63 -72 -63 23 0 32 -21 153
-42 237 -6 25 -14 71 -18 104 -5 33 -17 71 -29 87 -12 16 -25 56 -30 91 -6 35
-15 79 -20 98 -6 19 -11 51 -11 71 0 20 -7 56 -15 79 -8 23 -15 62 -15 86 0
24 -6 61 -14 81 -8 21 -17 62 -20 92 -3 34 -13 62 -25 75 -12 13 -22 43 -26
76 -4 30 -13 74 -21 98 -8 23 -14 59 -14 80 0 20 -7 59 -15 86 -8 27 -15 66
-15 86 0 21 -7 57 -15 80 -8 23 -15 62 -15 86 0 23 -5 55 -11 71 -6 15 -15 56
-19 90 -5 37 -16 73 -28 87 -11 15 -23 50 -27 82 -4 31 -13 74 -21 96 -8 22
-14 57 -14 77 0 20 -7 58 -15 85 -8 27 -15 65 -15 85 0 20 -7 58 -15 85 -8 27
-15 66 -15 87 0 21 -5 50 -11 66 -6 15 -15 59 -20 97 -6 45 -16 77 -28 90 -11
12 -22 44 -26 71 -4 28 -13 72 -21 99 -8 27 -14 63 -14 80 0 17 -6 60 -14 96
-19 85 -36 171 -47 244 -5 35 -17 69 -29 81 -12 13 -22 42 -26 80 -4 33 -13
77 -21 99 -7 21 -13 55 -13 76 0 21 -7 57 -15 80 -8 23 -15 62 -15 85 0 23 -7
62 -15 85 -8 23 -15 62 -15 86 0 24 -6 61 -14 81 -8 21 -17 62 -20 92 -3 35
-13 62 -26 76 -14 15 -23 44 -29 92 -5 40 -12 77 -16 84 -5 6 -11 39 -15 73
-4 33 -13 86 -18 116 -6 30 -16 82 -23 115 -6 33 -15 87 -19 120 -4 33 -13 74
-18 90 -6 17 -13 56 -17 88 -4 35 -12 60 -20 63 -16 7 -35 57 -35 93 0 14 -6
55 -14 91 -36 161 -57 294 -48 318 7 19 46 14 104 -12z m5360 -41 c-2 -33 -10
-82 -18 -109 -8 -27 -14 -66 -14 -87 0 -20 -7 -56 -15 -79 -8 -23 -15 -62 -15
-86 0 -23 -5 -55 -11 -71 -6 -15 -15 -57 -20 -93 -6 -40 -17 -72 -29 -85 -13
-14 -23 -45 -29 -91 -5 -38 -14 -82 -20 -97 -6 -16 -11 -45 -11 -65 0 -20 -7
-59 -15 -86 -8 -27 -15 -65 -15 -84 0 -19 -7 -58 -15 -86 -8 -28 -17 -72 -20
-98 -3 -25 -15 -56 -25 -68 -10 -12 -22 -43 -25 -68 -3 -26 -12 -70 -20 -98
-8 -28 -15 -67 -15 -86 0 -19 -7 -57 -15 -84 -8 -27 -15 -65 -15 -85 0 -20 -7
-58 -15 -85 -8 -27 -15 -66 -15 -86 0 -21 -6 -57 -14 -80 -8 -24 -16 -67 -20
-97 -3 -34 -13 -62 -26 -76 -13 -14 -23 -44 -29 -91 -5 -38 -14 -82 -20 -97
-6 -16 -11 -45 -11 -66 0 -21 -7 -58 -15 -81 -8 -23 -15 -62 -15 -85 0 -23 -6
-60 -13 -81 -8 -22 -17 -66 -21 -99 -5 -42 -12 -64 -26 -75 -13 -10 -22 -32
-25 -65 -3 -27 -12 -75 -20 -105 -14 -60 -32 -160 -45 -255 -4 -33 -13 -73
-19 -88 -6 -16 -11 -48 -11 -71 0 -24 -6 -61 -14 -82 -7 -22 -16 -66 -20 -99
-5 -37 -15 -68 -27 -80 -11 -13 -22 -47 -28 -85 -5 -36 -14 -78 -20 -93 -6
-16 -11 -45 -11 -64 0 -20 -6 -62 -14 -92 -16 -64 -34 -165 -46 -263 -5 -37
-13 -75 -18 -85 -6 -10 -13 -45 -17 -78 -4 -36 -15 -68 -26 -80 -11 -12 -22
-47 -28 -85 -5 -36 -14 -78 -20 -93 -6 -16 -11 -43 -11 -60 0 -18 -6 -63 -14
-102 -24 -115 -35 -176 -47 -250 -5 -38 -16 -75 -24 -81 -19 -14 -35 -58 -35
-96 0 -17 -6 -54 -14 -82 -17 -59 -35 -161 -46 -260 -6 -61 -18 -85 -41 -86
-10 0 -16 21 -24 76 -4 27 -16 58 -26 70 -11 11 -23 45 -28 75 -5 30 -14 65
-19 79 -6 14 -18 61 -26 105 -9 44 -23 103 -31 131 -8 28 -15 63 -15 77 0 15
-6 44 -14 64 -8 21 -17 58 -21 83 -3 25 -14 54 -25 65 -10 11 -26 52 -34 90
-72 330 -98 431 -115 450 -11 11 -24 45 -29 75 -6 30 -15 68 -21 83 -6 16 -11
40 -11 54 0 15 -7 49 -15 77 -8 28 -22 87 -31 131 -9 44 -22 100 -29 125 -7
25 -16 62 -20 82 -3 21 -13 45 -23 54 -9 10 -22 43 -29 73 -6 31 -17 76 -23
101 -15 60 -27 114 -55 240 -12 58 -30 139 -39 180 -9 41 -25 84 -35 95 -11
11 -22 40 -26 65 -4 25 -12 53 -17 64 -6 10 -14 42 -18 70 -8 50 -37 186 -60
276 -6 25 -19 54 -29 65 -10 11 -23 43 -29 70 -6 28 -16 69 -23 92 -12 39 -11
45 9 73 20 27 23 41 21 121 -2 91 -2 92 29 115 17 14 36 40 42 59 17 51 58
121 89 153 15 15 55 84 90 154 34 69 74 138 89 153 15 15 36 46 48 69 11 22
30 59 41 81 11 22 33 66 48 99 16 32 38 63 51 68 13 6 32 35 49 74 33 79 54
94 122 94 48 0 54 3 63 26 6 14 10 45 10 69 0 51 9 62 78 94 28 13 54 31 57
40 7 20 93 79 133 90 29 9 121 66 132 82 10 15 134 92 195 122 33 16 78 48
101 72 25 27 55 47 80 54 21 6 62 29 89 51 80 63 154 111 238 153 42 21 85 50
94 64 21 32 119 81 158 79 l30 -1 -3 -60z m2835 -867 c-3 -7 -5 -2 -5 12 0 14
2 19 5 13 2 -7 2 -19 0 -25z"/>
<path d="M4881 9414 c-27 -35 -26 -55 3 -83 l24 -22 40 20 c61 31 62 49 5 89
-40 28 -47 28 -72 -4z"/>
</g>
</svg>
